<?xml version="1.0" encoding="utf-8"?>
<!-- Generator: Adobe Illustrator 26.0.1, SVG Export Plug-In . SVG Version: 6.00 Build 0)  -->
<svg version="1.1" id="Layer_1" xmlns="http://www.w3.org/2000/svg" xmlns:xlink="http://www.w3.org/1999/xlink" x="0px" y="0px"
	 viewBox="0 0 595.28 841.89" style="enable-background:new 0 0 595.28 841.89;" xml:space="preserve">
<style type="text/css">
	.st0{fill:#3672B9;}
	.st1{fill:#567CA9;}
</style>
<g>
	<path class="st0" d="M139.8,226.99c14.99,9.77,29.99,19.53,44.96,29.32c24.79,16.21,49.57,32.42,74.34,48.66
		c12.59,8.26,25.13,16.6,37.72,24.85c18.41,12.05,36.86,24.04,55.29,36.07c18.98,12.39,37.94,24.81,56.92,37.2
		c7.33,4.79,14.72,9.48,22.02,14.32c4.51,2.99,4.48,4.15-0.03,7.1c-21.01,13.74-42.06,27.43-63.07,41.17
		c-25,16.35-49.98,32.74-74.97,49.11c-27.25,17.86-54.49,35.74-81.76,53.56c-23.28,15.22-46.6,30.37-69.91,45.55
		c-0.54,0.35-1.09,0.66-2.43,1.48c2.24-5.92,4.15-11.15,6.18-16.32c12.6-32.07,25.25-64.13,37.86-96.2
		c10.16-25.85,20.15-51.76,30.57-77.5c1.91-4.72,0.16-8.29-1.34-12.12c-11.17-28.62-22.45-57.21-33.7-85.8
		c-9.75-24.76-19.52-49.52-29.27-74.29c-3.37-8.57-6.69-17.17-10.03-25.76C139.36,227.27,139.58,227.13,139.8,226.99z"/>
	<path class="st0" d="M301.14,236.63c-17.99,0.9-35.41,4.63-52.27,10.92c-2.42,0.9-4.33,0.69-6.49-0.73
		c-22.04-14.52-44.14-28.95-66.21-43.42c-3.7-2.43-3.76-3.8-0.05-6.08c19.94-12.23,41.11-21.64,63.55-28.36
		c27.3-8.17,55.17-11.53,83.55-10.29c16.83,0.74,33.48,3.07,49.96,7.03c21.93,5.27,42.69,13.35,62.44,24.05
		c24.77,13.42,46.67,30.6,66.05,51.1c12.64,13.38,23.37,28.11,33.17,43.6c2.91,4.61,2.65,5.33-2.05,8.07
		c-19.46,11.32-38.94,22.58-58.35,33.98c-2.65,1.56-3.68,1.11-5.3-1.53c-12.49-20.43-28.09-38.07-47.35-52.47
		c-18.27-13.66-38.46-23.37-60.24-29.75c-11.86-3.47-24.09-5.34-36.46-6.1c-2.86-1.55-5.96-0.76-8.92-0.7
		C311.17,236.05,306.08,235.02,301.14,236.63z"/>
	<path class="st0" d="M325.11,605.22c29.09-1.7,55.99-10.58,80.98-25.25c18.16-10.67,33.77-24.42,47.22-40.67
		c6.02-7.27,11.4-14.94,16.2-23.03c1.2-2.03,2.16-2.46,4.23-1.23c8.17,4.86,16.43,9.58,24.64,14.37
		c11.56,6.74,23.08,13.54,34.68,20.22c4.15,2.39,4.65,3.36,2.05,7.46c-9.89,15.57-20.56,30.53-33.39,43.91
		c-16.23,16.93-34,31.92-54.02,44.17c-24.68,15.1-51.1,25.84-79.35,32.2c-25.1,5.65-50.47,7.26-76.04,5.32
		c-11.77-0.89-23.43-2.73-35.05-5.25c-20.77-4.5-40.52-11.58-59.47-21.02c-7.24-3.6-14.25-7.68-21.31-11.63
		c-4.01-2.25-4.06-3.78-0.29-6.26c22.07-14.5,44.17-28.94,66.21-43.47c2.17-1.43,4.09-1.63,6.49-0.7
		c12.03,4.68,24.62,7.41,37.23,9.88c4.89,0.96,10.01,0.72,15.02,1.03c6.11,1.64,12.33,0.44,18.49,0.69
		C321.44,606.02,323.45,606.67,325.11,605.22z"/>
	<path class="st0" d="M51.91,420.37c-0.54-24.43,3.12-48.32,9.73-71.74c8.79-31.13,22.88-59.74,42.22-85.71
		c0.46-0.62,0.93-1.24,1.45-1.81c2.62-2.94,3.98-2.74,5.43,0.94c3.68,9.33,7.27,18.7,10.93,28.04
		c14.75,37.73,29.52,75.46,44.28,113.19c1.97,5.03,3.86,10.09,5.9,15.08c0.73,1.8,0.7,3.38-0.02,5.2
		c-9.76,24.77-19.49,49.55-29.18,74.35c-7.58,19.4-15.09,38.83-22.65,58.24c-2.94,7.55-5.87,15.1-8.87,22.63
		c-2.05,5.16-3.43,5.34-6.82,0.8c-7.33-9.8-13.84-20.11-19.78-30.83c-9.47-17.07-17-34.94-22.32-53.68
		c-4.46-15.72-7.74-31.68-9.01-48.09C52.51,438.1,51.89,429.26,51.91,420.37z"/>
	<path class="st1" d="M301.14,236.63c4.94-1.62,10.02-0.59,15.03-0.68c2.96-0.06,6.06-0.85,8.92,0.7
		C317.11,236.64,309.13,236.64,301.14,236.63z"/>
	<path class="st1" d="M325.11,605.22c-1.66,1.45-3.68,0.8-5.49,0.73c-6.16-0.25-12.39,0.95-18.49-0.69
		C309.13,605.24,317.12,605.23,325.11,605.22z"/>
</g>
</svg>
